PathFileType	4	(X/Y/Z)	C:\Users\chris\Documents\GitHub\baseballds\vids\pitch6_Sports2D\pitch6_Sports2D_px_person00.trc
DataRate	CameraRate	NumFrames	NumMarkers	Units	OrigDataRate	OrigDataStartFrame	OrigNumFrames
30	30	6	22	m	30	23	186
Frame#	Time	Hip			RHip			RKnee			RAnkle			RBigToe			RSmallToe			RHeel			LHip			LKnee			LAnkle			LBigToe			LSmallToe			LHeel			Neck			Head			Nose			RShoulder			RElbow			RWrist			LShoulder			LElbow			LWrist		
		X1	Y1	Z1	X2	Y2	Z2	X3	Y3	Z3	X4	Y4	Z4	X5	Y5	Z5	X6	Y6	Z6	X7	Y7	Z7	X8	Y8	Z8	X9	Y9	Z9	X10	Y10	Z10	X11	Y11	Z11	X12	Y12	Z12	X13	Y13	Z13	X14	Y14	Z14	X15	Y15	Z15	X16	Y16	Z16	X17	Y17	Z17	X18	Y18	Z18	X19	Y19	Z19	X20	Y20	Z20	X21	Y21	Z21	X22	Y22	Z22
23	0.7666666666666666	605.4566169754465	578.0157554384675	0.0	573.3919039903009	579.7791309343144	0.0	569.4140481408137	701.1090965693425	0.0	566.557540787512	820.1501546172623	0.0	528.2315862726141	725.1769484919289	0.0	519.43421885554	723.9216791156108	0.0	569.7509680932451	824.6602841074773	0.0	639.005543043172	580.0026805663689	0.0	648.8036431851084	699.9383027218724	0.0	666.9655014832604	818.7773526390081	0.0	723.4703662311724	919.6687697767264	0.0	763.933205478556	934.283982312037	0.0	689.830579358532	863.5180310342607	0.0	629.341139793957	387.29506087752486	0.0	637.7057289922034	269.3227701769605	0.0	651.6910227068569	311.2200578763814	0.0	547.2227698332763	417.0058702314522	0.0	522.4243025196124	516.7007479658162	0.0	563.7352573051581	546.4314497893869	0.0	678.7345975343164	408.6343100420698	0.0	670.9251024558297	498.70295824846244	0.0	663.0851927248488	559.0499989445885	0.0
24	0.8	589.6088621776723	571.3952593950348	0.0	563.0538235936012	572.9147247795663	0.0	558.6576205822578	677.8924521573429	0.0	555.3987417260737	778.8393430516496	0.0	530.1611190005057	733.7655907803793	0.0	521.4047234629899	732.7129700581434	0.0	557.6901976751167	786.5988218943464	0.0	617.7984545126485	572.6736981633067	0.0	623.1218291081299	676.1518630041198	0.0	630.853042238833	775.7441412952471	0.0	689.4136686878954	862.0479467190194	0.0	772.2779714760203	924.9104155149655	0.0	621.2881229497297	784.520588578701	0.0	621.1100289247466	444.9157940847183	0.0	627.8486288664792	323.2095511022075	0.0	637.9305273297753	348.5361761169122	0.0	545.2445083046603	421.2037766197205	0.0	515.8376260378036	517.4821107263297	0.0	546.6369490493107	552.4111451453458	0.0	662.2871792894705	414.4333403973919	0.0	643.6265609243917	505.6948240824229	0.0	641.7482775990921	557.613599578154	0.0
25	0.8333333333333334	571.5198609176122	563.6087233448517	0.0	551.0693832785839	564.7848444844209	0.0	546.0569706022443	650.0042691021081	0.0	542.2488343808078	729.7698106737412	0.0	534.149423568997	741.191333295021	0.0	523.912846502956	740.0112328511682	0.0	543.2817372430782	740.6759807537965	0.0	594.2075319430994	564.13892940349	0.0	595.2386479327774	647.8687804523313	0.0	590.1351645462084	724.9018448583133	0.0	635.1050571859782	799.0597902117826	0.0	774.2786991127547	922.7095312297845	0.0	573.3620692101675	729.577552901904	0.0	592.3930119872349	469.1496314825485	0.0	599.7610173254278	371.45851597331284	0.0	604.6088642630718	391.0335824905596	0.0	537.6603316594224	443.13234322515825	0.0	508.29975104105284	518.1539557110435	0.0	526.3531554543332	559.0315400777887	0.0	622.7640964992808	439.3243835925681	0.0	614.3305065709754	508.09236306171476	0.0	613.8851652082756	553.2378935661171	0.0
26	0.8666666666666667	565.3537361796215	563.3075653540174	0.0	547.3920046493412	565.3413463347623	0.0	542.141840048034	641.5156123861407	0.0	538.062986327016	711.587367134098	0.0	536.9089271709017	743.6696234561923	0.0	525.7007476822147	741.757841565674	0.0	539.2319934679676	723.093922226817	0.0	586.103191631742	564.95960705008	0.0	585.7439233637905	639.9953675683339	0.0	574.732937795714	706.2672941013728	0.0	589.2117312956811	752.6708591984186	0.0	773.4147794951753	923.7861038950583	0.0	562.8498504044499	716.8417921204586	0.0	567.1896024103442	464.8426461690647	0.0	572.5667057332028	404.6377842350474	0.0	573.07994642597	423.67851265023955	0.0	531.8716050130606	464.7281529331284	0.0	504.93152797125384	519.3797481090675	0.0	519.0120415285494	561.2096352139724	0.0	595.0105192059902	461.80162323751335	0.0	609.3633941372414	509.80860580191325	0.0	600.4514283145402	550.5566474562781	0.0
27	0.9	567.3507903623905	566.9707738832888	0.0	549.5538877070949	570.7898395979619	0.0	544.5293926889319	645.8500307628422	0.0	540.0716706698915	715.0796056637066	0.0	537.4869879277243	744.3344966617458	0.0	526.6593277263233	741.7731289780631	0.0	542.3318019040966	726.2715360275729	0.0	587.9207181983347	570.6877838048699	0.0	587.1673065566335	645.6595628809771	0.0	576.88029095508	709.8560026064026	0.0	568.6027123486691	733.0975605629313	0.0	772.6791399390995	924.5806786867545	0.0	569.012625134686	722.7614449825057	0.0	559.5147360675048	458.38019263951986	0.0	559.9467446689864	420.17348860686377	0.0	559.0390276462626	439.22059477261996	0.0	530.6909225926984	475.1811687558552	0.0	504.5302469189596	520.0586123188559	0.0	521.0495828675249	560.4971193224522	0.0	589.1448512142048	471.2472116514996	0.0	623.5863312000264	510.97930876924465	0.0	600.2709843148921	551.7741038413548	0.0
28	0.9333333333333333	570.6497218974389	568.7266023490097	0.0	552.6088191752153	573.3075343784756	0.0	548.0074293365157	649.823599653192	0.0	542.8214870191633	720.8258057740386	0.0	537.7185874003317	745.1066167699081	0.0	527.5616976926003	742.6168269847808	0.0	545.7305518116409	731.9635222365733	0.0	590.9749189165881	573.1431572329154	0.0	589.9496270983689	650.7157865442766	0.0	581.1044565554216	715.710804534596	0.0	567.3692048247101	732.8293304930864	0.0	772.3727469539843	924.3212675215	0.0	573.9144181546808	727.5810560278176	0.0	563.3394011912172	458.53547000336675	0.0	560.6713136133026	423.4317099961045	0.0	561.4980597269342	442.624318707365	0.0	532.9402529429326	476.84607249761365	0.0	505.0762676670654	519.6562619320417	0.0	524.5317517175349	559.8231893271051	0.0	593.944793517634	472.0786023243659	0.0	637.3529971108098	511.9637039601402	0.0	603.941892714449	554.7093063566731	0.0
